# xmcd
#
# Track frame offsets:
#	150
#	14437
#	34390
#	50102
#	68644
#	84959
#	100635
#	116865
#	132513
#	151064
#	171564
#	187720
#
# Disc length: 2642 seconds
#
# Revision: 1
# Processed by: cddbd v1.5.2PL0 Copyright (c) Steve Scherf et al.
# Submitted via: EasyCDDAExtractor 11.0.3.1
#
DISCID=9c0a500c
DTITLE=Harry Manx - West East Meet
DYEAR=2004
DGENRE=Blues-Male vocal
TTITLE0=Help Me
TTITLE1=Make Way for the Living
TTITLE2=Shadow of the Whip
TTITLE3=The Great Unknown
TTITLE4=Forgive and Remember
TTITLE5=Sittin' on Top of the World
TTITLE6=That Knowing Look of Fate
TTITLE7=Stir A Little Breeze
TTITLE8=Tough and Tender
TTITLE9=The Ways of Love
TTITLE10=Something of Your Grace
TTITLE11=Hector's Song
EXTD=YEAR: 2004
EXTT0=
EXTT1=
EXTT2=
EXTT3=
EXTT4=
EXTT5=
EXTT6=
EXTT7=
EXTT8=
EXTT9=
EXTT10=
EXTT11=
PLAYORDER=
